<svg width="162" height="54" viewBox="0 0 162 54" fill="none" xmlns="http://www.w3.org/2000/svg">
<path fill-rule="evenodd" clip-rule="evenodd" d="M131.982 48.4956H129.093V35.928H137.759V38.4413H131.982V48.4956ZM126.318 48.4956H117.652V35.928H126.318V43.4687H120.54V45.982H126.318V48.4956ZM120.54 40.9549H123.429V38.4413H120.54V40.9549ZM115.073 48.4956H112.185V38.4413H109.296V48.4956H106.407V38.4413H103.519V48.4956H100.63V35.928H115.073V48.4956ZM97.6011 48.4956H88.9353V40.9549H94.7123V38.4413H88.9353V35.928H97.6011V48.4956ZM91.8236 45.982H94.7123V43.4687H91.8236V45.982ZM86.1591 53.5474H77.4794V51.0336H83.2704V48.5077H77.4794V35.928H86.1591V53.5474ZM80.3677 45.994H83.2704V38.4413H80.3677V45.994ZM65.027 48.4666H62.0933L68.6057 38.9826H71.5392L65.027 48.4666ZM61.0586 41.816V38.9529H64.3488V41.816H61.0586ZM69.2839 48.496V45.6333H72.574V48.496H69.2839ZM32.8645 48.4345V35.9286H44.3621V48.4345H32.8645ZM35.7389 45.9333H41.4878V38.4298H35.7389V45.9333ZM47.2366 48.4345V35.9286H58.7341V48.4345H47.2366ZM50.111 45.9333H55.8598V38.4298H50.111V45.9333ZM29.9901 48.4345H27.1157V38.4298H24.2414V35.9286H29.9901V48.4345Z" fill="white" fill-opacity="0.7"/>
<path fill-rule="evenodd" clip-rule="evenodd" d="M154.006 8.48817C154.168 7.31223 153.796 6.45595 152.898 5.90794C152.253 5.51107 151.114 5.31728 149.491 5.31728H139.683L138.759 12.0312H148.416C149.422 12.0312 150.17 11.9893 150.65 11.8941C151.12 11.8006 151.595 11.6142 152.049 11.3325C153.185 10.6483 153.841 9.69657 154.006 8.48817ZM152.369 20.3242C152.529 19.1571 152.155 18.3001 151.257 17.7529C150.611 17.356 149.481 17.1608 147.859 17.1608H138.051L137.126 23.8697H146.783C147.791 23.8697 148.538 23.8262 149.025 23.7326C149.505 23.6386 149.973 23.451 150.418 23.1711C151.553 22.4862 152.201 21.5352 152.369 20.3242ZM159.977 11.9235C158.882 13.2203 157.603 14.1134 156.138 14.6044C159.181 15.8864 160.477 18.1487 160.03 21.3832C159.772 23.2647 159.037 24.842 157.84 26.109C156.814 27.2052 155.569 27.9618 154.106 28.3789C152.641 28.7907 150.522 28.9995 147.76 28.9995H129.346L133.313 0.18691H152.145C155.092 0.18691 157.192 0.475431 158.47 1.05142C159.933 1.7425 160.961 2.85932 161.537 4.40862C161.964 5.48249 162.093 6.59243 161.935 7.74472C161.73 9.23715 161.08 10.6338 159.977 11.9235ZM122.151 9.35148C122.419 7.40636 121.8 6.1604 120.302 5.61209C119.764 5.41814 118.878 5.31728 117.663 5.31728H107.856L106.685 13.8042H116.344C118.067 13.8042 119.314 13.5668 120.081 13.0832C121.22 12.3703 121.907 11.1238 122.151 9.35148ZM129.164 4.68337C129.9 6.1604 130.15 7.78826 129.908 9.56009C129.705 11.0233 129.206 12.4133 128.409 13.7164C127.605 15.029 126.599 16.1021 125.375 16.9528C124.299 17.6949 123.179 18.213 122.015 18.502C120.851 18.7899 119.308 18.9345 117.368 18.9345H105.979L104.593 28.9995H97.5158L101.486 0.18691H118.103C121.124 0.18691 123.273 0.367086 124.538 0.73477C126.631 1.36853 128.174 2.68722 129.164 4.68337ZM89.0842 14.6044C89.4975 11.5919 89.2582 9.29462 88.3537 7.70117C87.2958 5.82144 85.1212 4.87043 81.8449 4.85607C78.5716 4.85607 76.1068 5.7779 74.4358 7.622C73.1306 9.05533 72.2632 11.3618 71.8266 14.5384C71.3608 17.9181 71.7187 20.3961 72.8981 21.9889C74.0627 23.552 76.1636 24.3303 79.1852 24.3303C82.1067 24.3303 84.381 23.5376 85.988 21.9597C87.5977 20.3748 88.6254 17.9255 89.0842 14.6044ZM96.4748 7.36267C97.1163 9.53211 97.2408 12.0748 96.8373 15.0071C96.4346 17.9324 95.5092 20.4684 94.055 22.6234C92.2845 25.2096 89.8462 27.0102 86.7514 28.026C84.4323 28.7826 81.8319 29.1653 78.9597 29.1653C75.2143 29.1653 72.0417 28.5595 69.4277 27.3493C67.2371 26.3333 65.6829 24.7478 64.7469 22.5935C63.8215 20.4327 63.5666 17.8097 63.9914 14.7259C64.7469 9.24359 66.8606 5.3315 70.3367 2.9964C73.2796 1.02958 77.3218 0.0291813 82.4634 0C85.7923 0 88.6563 0.489797 91.042 1.47583C93.8541 2.64368 95.6641 4.6105 96.4748 7.36267ZM0 28.9995L0.706987 23.8697H15.9011C18.3493 23.8697 20.0008 23.6603 20.8753 23.2353C22.1326 22.6308 22.8399 21.7223 23.0074 20.5119C23.1985 19.1215 22.6566 18.0982 21.3809 17.45C20.6485 17.0824 19.424 16.9023 17.7184 16.9023H11.5488C7.77772 16.9023 5.14548 16.3108 3.64328 15.1298C2.70568 14.3801 2.02741 13.4434 1.59197 12.3123C1.16478 11.1818 1.03959 9.97147 1.21741 8.68944C1.49532 6.66351 2.43344 4.81252 4.02954 3.14036C5.58333 1.52745 7.85373 0.583327 10.8298 0.316505C11.8313 0.230457 13.3194 0.18691 15.2841 0.18691H43.465L41.8466 11.9458H54.7165L56.3368 0.18691H63.4124L59.4437 28.9995H52.3666L54.0108 17.0749H41.1391L39.496 28.9995H32.4194L35.6913 5.25637L16.1924 5.31728C13.9599 5.3315 12.4661 5.41814 11.7206 5.56839C10.1781 5.89313 9.29316 6.87347 9.06891 8.50178C8.87887 9.87735 9.37605 10.8077 10.5659 11.2902C11.362 11.6142 12.7397 11.7725 14.6951 11.7725H20.0321C22.7614 11.7725 24.7827 11.9739 26.0748 12.3851C28.3361 13.0758 29.7918 14.2866 30.4278 16.016C30.9528 17.4064 31.1047 18.8978 30.8856 20.4907C30.6445 22.2339 29.9618 23.8043 28.846 25.2017C27.2762 27.1691 25.1504 28.3443 22.4822 28.7247C21.1842 28.9059 19.273 28.9995 16.734 28.9995H0Z" fill="white"/>
</svg>
