<svg width="129" height="42" viewBox="0 0 129 42" fill="none" xmlns="http://www.w3.org/2000/svg">
<path d="M105.096 37.4656H102.796V27.8614H109.697V29.782H105.096V37.4656ZM100.586 37.4656H93.6856V27.8614H100.586V33.6241H95.9857V35.5448H100.586V37.4656ZM95.9857 31.703H98.286V29.782H95.9857V31.703ZM91.632 37.4656H89.3319V29.7819H87.0317V37.4656H84.7314V29.7819H82.4315V37.4656H80.1311V27.8614H91.6318V37.4656H91.632ZM77.7191 37.4656H70.8186V31.7029H75.4188V29.7819H70.8186V27.8612H77.7191V37.4656ZM73.1187 35.5448H75.4189V33.6241H73.1187V35.5448ZM68.6079 41.3262H61.6963V39.4051H66.3077V37.4748H61.6963V27.8614H68.6079V41.3262ZM63.9964 35.554H66.3078V29.782H63.9964V35.554ZM51.7806 37.4434H49.4444L54.6302 30.1957H56.9662L51.7806 37.4434ZM48.6206 32.361V30.173H51.2406V32.361H48.6206ZM55.1703 37.4659V35.2782H57.7903V37.4659H55.1703ZM26.1698 37.419V27.8618H35.3252V37.419H26.1698ZM28.4587 35.5074H33.0367V29.7731H28.4587V35.5074ZM37.6142 37.419V27.8618H46.7695V37.419H37.6142ZM39.9031 35.5074H44.4808V29.7731H39.9031V35.5074ZM23.8809 37.419H21.5921V29.7732H19.3032V27.8618H23.8809V37.419Z" fill="black" fill-opacity="0.7"/>
<path d="M122.634 6.89175C122.763 5.9931 122.467 5.33873 121.752 4.91994C121.239 4.61665 120.332 4.46856 119.039 4.46856H111.229L110.493 9.59937H118.183C118.984 9.59937 119.579 9.56735 119.962 9.49461C120.336 9.42314 120.715 9.28064 121.076 9.06542C121.981 8.54256 122.503 7.81522 122.634 6.89175ZM121.33 15.9369C121.458 15.045 121.16 14.3901 120.445 13.9719C119.931 13.6686 119.031 13.5194 117.739 13.5194H109.929L109.193 18.6464H116.883C117.686 18.6464 118.28 18.6131 118.668 18.5416C119.05 18.4698 119.423 18.3264 119.777 18.1125C120.681 17.5891 121.197 16.8623 121.33 15.9369ZM127.389 9.51703C126.517 10.5081 125.499 11.1906 124.332 11.5658C126.755 12.5455 127.787 14.2743 127.432 16.7461C127.226 18.184 126.641 19.3894 125.687 20.3577C124.871 21.1954 123.879 21.7737 122.714 22.0924C121.548 22.4071 119.86 22.5666 117.661 22.5666H102.997L106.157 0.547912H121.153C123.499 0.547912 125.171 0.7684 126.189 1.20858C127.354 1.7367 128.172 2.59017 128.631 3.77415C128.971 4.59481 129.074 5.44303 128.948 6.32361C128.785 7.46413 128.267 8.53146 127.389 9.51703ZM97.2683 7.5515C97.4821 6.06504 96.9887 5.11287 95.7961 4.69385C95.3671 4.54563 94.6616 4.46856 93.6948 4.46856H85.885L84.9527 10.9543H92.6441C94.0161 10.9543 95.0092 10.7728 95.6197 10.4033C96.5266 9.85851 97.0737 8.90588 97.2683 7.5515ZM102.852 3.98412C103.439 5.11287 103.638 6.35689 103.445 7.71092C103.283 8.82915 102.887 9.89133 102.252 10.8872C101.611 11.8903 100.811 12.7103 99.8357 13.3605C98.9786 13.9276 98.0868 14.3235 97.1597 14.5443C96.2328 14.7644 95.004 14.8748 93.4597 14.8748H84.3909L83.2868 22.5666H77.6514L80.8134 0.547912H94.0451C96.4508 0.547912 98.162 0.685603 99.1691 0.966588C100.836 1.45091 102.065 2.45866 102.852 3.98412ZM70.9374 11.5658C71.2663 9.2636 71.076 7.50805 70.3557 6.29033C69.5133 4.85384 67.7817 4.12707 65.1727 4.11609C62.5662 4.11609 60.6036 4.82056 59.2728 6.22983C58.2335 7.32518 57.5428 9.08783 57.1951 11.5154C56.8242 14.0981 57.1092 15.9918 58.0484 17.2091C58.9756 18.4036 60.6486 18.9984 63.0547 18.9984C65.3811 18.9984 67.1922 18.3926 68.4719 17.1868C69.7537 15.9756 70.572 14.1038 70.9374 11.5658ZM76.8225 6.03164C77.3333 7.68954 77.4324 9.63265 77.1112 11.8736C76.7903 14.1091 76.0534 16.047 74.8955 17.694C73.4856 19.6704 71.5441 21.0463 69.0796 21.8227C67.233 22.401 65.1624 22.6933 62.8752 22.6933C59.8927 22.6933 57.3662 22.2303 55.2849 21.3055C53.5405 20.5291 52.3029 19.3174 51.5574 17.6711C50.8205 16.0198 50.6177 14.0153 50.9558 11.6587C51.5574 7.46905 53.2406 4.47942 56.0085 2.69493C58.3522 1.19188 61.5711 0.427375 65.6652 0.405075C68.3159 0.405075 70.5967 0.779379 72.4964 1.5329C74.7355 2.42538 76.177 3.92843 76.8225 6.03164ZM0 22.5666L0.562834 18.6464H12.662C14.6114 18.6464 15.9266 18.4864 16.6229 18.1616C17.6241 17.6996 18.1874 17.0053 18.3207 16.0803C18.4727 15.0178 18.0414 14.2358 17.0255 13.7404C16.4422 13.4595 15.4671 13.3218 14.1089 13.3218H9.19625C6.19337 13.3218 4.09746 12.8699 2.90113 11.9673C2.15452 11.3944 1.61442 10.6786 1.26768 9.81414C0.927513 8.95025 0.827818 8.0253 0.969417 7.04557C1.19058 5.49735 1.9376 4.08282 3.2087 2.80494C4.44598 1.57236 6.2539 0.850855 8.62369 0.646949C9.42124 0.581191 10.6062 0.547912 12.1706 0.547912H34.611L33.3223 9.53407H43.5704L44.8608 0.547912H50.495L47.3348 22.5666H41.6995L43.0088 13.4538H32.759L31.4507 22.5666H25.8156L28.4209 4.42201L12.894 4.46856C11.1163 4.47942 9.9267 4.54563 9.33305 4.66045C8.10481 4.90862 7.40025 5.6578 7.22153 6.90216C7.07035 7.95337 7.46611 8.66435 8.41362 9.03305C9.04753 9.28064 10.1447 9.40164 11.7018 9.40164H15.9515C18.1248 9.40164 19.7344 9.55557 20.7634 9.86983C22.5639 10.3976 23.7231 11.3229 24.2297 12.6446C24.6478 13.7071 24.7688 14.8468 24.5942 16.0641C24.4022 17.3963 23.8586 18.5964 22.9701 19.6643C21.7201 21.1678 20.0275 22.0659 17.9027 22.3566C16.869 22.4951 15.3472 22.5666 13.3253 22.5666H0Z" fill="black"/>
</svg>
